<svg xmlns="http://www.w3.org/2000/svg" version="1.1" xmlns:xlink="http://www.w3.org/1999/xlink" xmlns:svgjs="http://svgjs.dev/svgjs" viewBox="0 0 2400 800" opacity="1"><defs><linearGradient x1="50%" y1="0%" x2="50%" y2="100%" id="sssurf-grad"><stop stop-color="hsl(208, 77%, 50%)" stop-opacity="1" offset="0%"></stop><stop stop-color="hsl(208, 74%, 93%)" stop-opacity="1" offset="100%"></stop></linearGradient></defs><g fill="url(#sssurf-grad)" transform="matrix(1,0,0,1,0,-64.99789428710938)"><path d="M 0 271.4794297045224 Q 450 457.5095064398065 600 264.9957751428433 Q 1050 599.4727326183101 1200 268.4628533005307 Q 1650 603.7082537760405 1800 341.183257717756 Q 2250 469.70601288225566 2400 284.82097813591906 L 2400 800 L 0 800 L 0 389.49954025989496 Z" transform="matrix(1,0,0,1,0,53)" opacity="0.05"></path><path d="M 0 271.4794297045224 Q 450 457.5095064398065 600 264.9957751428433 Q 1050 599.4727326183101 1200 268.4628533005307 Q 1650 603.7082537760405 1800 341.183257717756 Q 2250 469.70601288225566 2400 284.82097813591906 L 2400 800 L 0 800 L 0 389.49954025989496 Z" transform="matrix(1,0,0,1,0,106)" opacity="0.37"></path><path d="M 0 271.4794297045224 Q 450 457.5095064398065 600 264.9957751428433 Q 1050 599.4727326183101 1200 268.4628533005307 Q 1650 603.7082537760405 1800 341.183257717756 Q 2250 469.70601288225566 2400 284.82097813591906 L 2400 800 L 0 800 L 0 389.49954025989496 Z" transform="matrix(1,0,0,1,0,159)" opacity="0.68"></path><path d="M 0 271.4794297045224 Q 450 457.5095064398065 600 264.9957751428433 Q 1050 599.4727326183101 1200 268.4628533005307 Q 1650 603.7082537760405 1800 341.183257717756 Q 2250 469.70601288225566 2400 284.82097813591906 L 2400 800 L 0 800 L 0 389.49954025989496 Z" transform="matrix(1,0,0,1,0,212)" opacity="1.00"></path></g></svg>