<?xml version="1.0" standalone="no"?>
<!DOCTYPE svg PUBLIC "-//W3C//DTD SVG 20010904//EN" "http://www.w3.org/TR/2001/REC-SVG-20010904/DTD/svg10.dtd"[]>
<svg version="1.0"
     xmlns="http://www.w3.org/2000/svg"
     width="140pt"
     height="100pt"
     viewBox="0 0 562.000000 109.000000"
     preserveAspectRatio="xMidYMid meet">
    <g transform="translate(0.000000,109.000000) scale(0.100000,-0.100000)"
       fill="#bbb"
       stroke="none">
        <path d="M0 545 l0 -545 2810 0 2810 0 0 545 0 545 -2810 0 -2810 0 0 -545z&#xA;m5395 360 l25 -24 0 -336 0 -336 -25 -24 -24 -25 -1336 0 -1336 0 -24 25 -25&#xA;24 0 336 0 336 25 24 24 25 1336 0 1336 0 24 -25z m-4858 -141 c38 -18 58 -44&#xA;68 -86 7 -28 6 -28 -39 -28 -40 0 -48 3 -56 24 -12 32 -72 46 -109 25 -55 -31&#xA;-33 -57 81 -92 102 -32 129 -57 136 -125 6 -68 -16 -108 -75 -134 -66 -29&#xA;-168 -22 -217 16 -31 23 -65 90 -53 103 3 2 23 7 44 9 35 5 39 3 53 -27 26&#xA;-58 128 -66 152 -13 18 39 1 55 -92 85 -102 32 -140 67 -140 129 0 54 16 84&#xA;58 108 46 27 138 29 189 6z m1013 -209 l0 -215 -40 0 c-30 0 -40 4 -40 16 0&#xA;13 -5 12 -34 -5 -49 -31 -98 -27 -140 10 -105 91 -53 299 74 299 17 0 44 -7&#xA;60 -15 l30 -16 0 71 0 70 45 0 45 0 0 -215z m160 180 c0 -35 0 -35 -45 -35&#xA;-45 0 -45 0 -45 35 0 35 0 35 45 35 45 0 45 0 45 -35z m-900 -85 c27 0 30 -3&#xA;30 -30 0 -27 -3 -30 -30 -30 l-30 0 0 -87 c0 -98 7 -118 38 -109 16 5 20 1 24&#xA;-23 5 -35 -5 -41 -63 -41 -68 0 -79 21 -79 150 0 103 -1 110 -20 110 -16 0&#xA;-20 7 -20 30 0 23 4 30 20 30 16 0 20 7 20 33 0 26 7 36 38 54 l37 21 3 -54&#xA;c3 -52 4 -54 32 -54z m1650 -15 l0 -55 55 0 55 0 0 -35 0 -35 -55 0 -55 0 0&#xA;-55 0 -55 -40 0 -40 0 0 55 0 55 -55 0 -55 0 0 35 0 35 55 0 55 0 0 55 0 55&#xA;40 0 40 0 0 -55z m-469 2 c41 -27 69 -79 69 -129 l0 -38 -100 0 c-93 0 -100&#xA;-1 -100 -20 0 -25 34 -60 58 -60 11 0 27 9 37 20 19 21 60 26 84 11 19 -12 -1&#xA;-47 -42 -71 -68 -42 -173 -16 -209 51 -22 41 -24 138 -4 177 16 30 53 66 76&#xA;75 37 14 98 6 131 -16z m-1009 -109 l3 -123 29 -10 c25 -8 31 -6 52 18 22 26&#xA;24 37 24 133 l0 104 45 0 45 0 0 -155 0 -155 -45 0 c-33 0 -45 4 -45 15 0 12&#xA;-6 11 -32 -5 -46 -28 -100 -26 -135 4 -28 24 -28 25 -31 160 l-4 136 46 0 45&#xA;0 3 -122z m728 -33 l0 -155 -45 0 -45 0 0 155 0 155 45 0 45 0 0 -155z" />
        <path d="M2790 555 l0 -215 45 0 45 0 0 80 0 80 71 0 c112 0 161 33 175 117 8&#xA;52 -16 107 -58 133 -28 17 -50 20 -155 20 l-123 0 0 -215z m226 120 c8 -10 14&#xA;-28 14 -40 0 -42 -23 -58 -89 -63 l-61 -4 0 67 0 67 61 -4 c45 -3 65 -10 75&#xA;-23z" />
        <path d="M4290 735 c0 -35 0 -35 45 -35 45 0 45 0 45 35 0 35 0 35 -45 35 -45&#xA;0 -45 0 -45 -35z" />
        <path d="M3290 640 c-16 -16 -20 -17 -20 -5 0 11 -11 15 -40 15 l-40 0 0 -155&#xA;0 -155 45 0 45 0 0 98 c0 116 12 143 62 139 28 -2 33 2 42 31 7 26 6 36 -5 43&#xA;-24 15 -68 10 -89 -11z" />
        <path d="M3472 640 c-48 -29 -76 -98 -69 -167 10 -93 62 -143 150 -143 56 0&#xA;97 19 121 55 21 32 19 34 -27 42 -27 4 -39 1 -56 -16 -28 -28 -55 -26 -80 5&#xA;-39 49 -31 54 85 54 l106 0 -7 47 c-4 26 -13 60 -21 76 -34 64 -135 88 -202&#xA;47z m117 -66 c35 -45 28 -54 -39 -54 -44 0 -60 4 -60 14 0 22 40 66 60 66 10&#xA;0 28 -12 39 -26z" />
        <path d="M3868 644 c-16 -8 -28 -10 -28 -4 0 5 -20 10 -45 10 l-45 0 0 -155 0&#xA;-155 44 0 44 0 4 109 c2 90 6 113 22 130 11 12 27 21 36 21 34 0 40 -21 40&#xA;-142 l0 -118 45 0 45 0 0 101 c0 56 5 110 11 122 21 40 47 47 73 21 13 -12 16&#xA;-39 16 -130 l0 -114 45 0 45 0 0 120 c0 164 -19 200 -108 200 -25 0 -49 -8&#xA;-66 -21 l-26 -20 -26 20 c-31 25 -87 27 -126 5z" />
        <path d="M4933 640 c-27 -16 -33 -17 -33 -5 0 11 -11 15 -40 15 l-40 0 0 -155&#xA;0 -155 45 0 45 0 0 110 c0 97 2 112 20 130 22 22 37 25 60 10 12 -7 16 -36 18&#xA;-130 l4 -120 44 0 44 0 0 110 c0 97 2 112 20 130 11 11 26 20 33 20 31 0 37&#xA;-25 37 -142 l0 -118 51 0 51 0 -4 128 c-3 70 -8 135 -13 145 -19 45 -108 61&#xA;-161 28 -29 -18 -31 -18 -53 0 -30 25 -87 24 -128 -1z" />
        <path d="M4290 495 l0 -155 45 0 45 0 0 155 0 155 -45 0 -45 0 0 -155z" />
        <path d="M4460 519 l0 -131 29 -29 c36 -35 90 -39 139 -9 26 16 32 17 32 5 0&#xA;-11 12 -15 45 -15 l45 0 0 155 0 155 -45 0 -45 0 0 -69 c0 -113 -10 -160 -37&#xA;-178 -19 -13 -29 -14 -48 -5 -25 11 -25 14 -25 132 l0 120 -45 0 -45 0 0 -131z" />
        <path d="M1355 575 c-21 -20 -25 -34 -25 -80 0 -46 4 -60 25 -80 51 -52 105&#xA;-11 105 80 0 91 -54 132 -105 80z" />
        <path d="M1880 580 c-11 -11 -20 -29 -20 -40 0 -18 7 -20 55 -20 48 0 55 2 55&#xA;20 0 23 -33 60 -55 60 -8 0 -24 -9 -35 -20z" />
    </g>
</svg>